<?xml version="1.0" standalone="no"?>
<!DOCTYPE svg PUBLIC "-//W3C//DTD SVG 20010904//EN"
 "http://www.w3.org/TR/2001/REC-SVG-20010904/DTD/svg10.dtd">
<svg version="1.0" xmlns="http://www.w3.org/2000/svg"
 width="500.000000pt" height="500.000000pt" viewBox="0 0 500.000000 500.000000"
 preserveAspectRatio="xMidYMid meet">
<metadata>
Created by potrace 1.14, written by Peter Selinger 2001-2017
</metadata>
<g transform="translate(0.000000,500.000000) scale(0.100000,-0.100000)"
fill="#000000" stroke="none">
<path d="M2350 4005 c-296 -62 -514 -277 -585 -576 -12 -53 -14 -137 -12 -474
l2 -410 29 -75 c29 -76 34 -114 21 -161 -15 -56 56 -149 185 -244 41 -30 80
-59 87 -65 7 -5 15 -10 18 -10 4 0 25 -13 48 -29 44 -29 176 -98 237 -122 22
-9 74 -14 140 -14 100 0 109 2 180 36 41 20 102 57 135 84 146 116 385 385
401 451 5 17 1 37 -11 56 -12 21 -15 40 -11 61 16 73 20 179 20 487 0 334 -4
387 -30 479 -73 255 -291 463 -549 522 -69 16 -238 18 -305 4z m611 -1392 c13
-16 12 -17 -3 -4 -17 13 -22 21 -14 21 2 0 10 -8 17 -17z m-996 -163 c3 -5 1
-10 -4 -10 -6 0 -11 5 -11 10 0 6 2 10 4 10 3 0 8 -4 11 -10z m429 -109 c38
-72 91 -291 71 -291 -8 0 -55 87 -59 110 -2 14 -5 25 -7 25 -1 0 -3 10 -4 22
-1 12 -6 30 -10 40 -4 10 -10 26 -12 36 -2 11 -13 27 -26 37 -20 17 -20 19 -4
25 9 4 17 14 17 22 0 20 17 7 34 -26z m93 -345 c0 -8 -6 -12 -14 -9 -7 3 -13
9 -13 14 0 5 6 9 13 9 8 0 14 -6 14 -14z"/>
<path d="M992 1670 c-4 -10 -7 -72 -7 -137 l0 -118 79 -3 c44 -2 91 2 106 8
61 25 81 136 37 201 -30 45 -67 61 -144 65 -55 2 -65 0 -71 -16z m133 -46 c35
-16 45 -37 45 -95 0 -28 -6 -41 -25 -53 -28 -19 -90 -21 -101 -4 -11 17 -4
140 8 155 14 17 33 16 73 -3z"/>
<path d="M1357 1679 c-9 -5 -24 -27 -33 -47 -30 -70 -75 -204 -70 -210 3 -2
16 -6 30 -7 20 -3 26 2 31 25 7 30 28 42 79 45 32 2 65 -23 58 -42 -2 -7 2
-13 8 -13 10 0 9 -5 -2 -17 -9 -10 -19 -38 -23 -63 -9 -58 -11 -66 -24 -120
-7 -25 -14 -61 -17 -80 -2 -19 -13 -79 -24 -134 -11 -54 -20 -115 -20 -135 1
-34 2 -35 15 -17 9 12 11 24 6 29 -5 5 -5 25 0 45 4 20 10 55 14 78 3 22 10
55 15 73 10 36 10 36 10 55 0 8 24 27 53 44 28 16 61 39 71 51 25 27 48 27 83
-3 24 -21 28 -31 27 -78 -1 -96 -70 -174 -178 -202 -64 -17 -81 -26 -49 -26
41 0 124 34 162 67 80 68 106 182 55 242 -14 17 -32 31 -40 31 -18 0 -18 14 0
29 14 12 30 60 31 91 0 8 6 16 13 16 6 1 17 2 23 3 7 1 9 37 8 106 -3 122 3
135 52 111 39 -20 43 -20 36 -2 -3 7 -1 18 4 23 22 22 -24 38 -115 39 -103 2
-128 -6 -122 -39 3 -12 5 -25 5 -29 1 -3 15 0 31 9 47 23 55 8 54 -91 -1 -48
-4 -89 -7 -92 -3 -3 -19 2 -36 10 -16 9 -41 16 -54 16 -21 0 -26 8 -38 48 -16
59 -59 155 -73 164 -15 10 -28 9 -49 -3z m38 -105 c2 -11 4 -19 5 -19 1 0 3
-8 5 -17 4 -22 -9 -31 -35 -23 -16 5 -19 12 -14 43 3 20 8 41 11 45 7 12 24
-6 28 -29z m189 -145 c53 -42 16 -136 -59 -151 -22 -4 -52 -15 -67 -23 -26
-15 -28 -15 -27 2 0 10 8 50 18 88 15 61 20 70 38 68 16 -2 20 2 16 17 -4 17
0 20 24 20 17 0 42 -9 57 -21z m-69 -187 c-11 -11 -37 -29 -57 -41 -29 -17
-38 -19 -38 -9 0 28 54 66 95 67 19 1 19 1 0 -17z"/>
<path d="M1789 1679 c-14 -8 -23 -256 -9 -264 6 -4 174 -9 213 -6 13 1 17 10
17 40 0 49 -10 57 -39 30 -15 -14 -36 -21 -66 -21 -51 -1 -75 14 -75 49 0 30
32 43 79 32 37 -8 44 -6 47 15 2 15 -33 39 -40 27 -6 -9 -61 -6 -77 4 -5 4 -9
14 -9 24 0 37 79 47 127 15 12 -8 25 -14 28 -14 8 0 6 53 -3 66 -8 13 -173 16
-193 3z"/>
<path d="M2161 1681 c-20 -13 -27 -244 -8 -263 16 -16 2 -98 -16 -99 -7 0 -38
-2 -69 -3 -84 -4 -84 -16 0 -16 40 0 72 -3 72 -7 0 -5 -7 -37 -15 -72 -15 -60
-64 -141 -86 -141 -5 0 -9 18 -9 41 l0 40 -24 -28 c-25 -29 -43 -27 -32 4 9
21 8 23 -1 23 -5 0 -8 -4 -8 -9 0 -5 -13 -24 -29 -42 -32 -36 -36 -33 -51 34
l-6 29 -29 -34 c-32 -36 -39 -25 -14 23 13 26 19 30 42 24 22 -5 25 -4 15 6
-24 24 -43 17 -73 -26 -42 -60 -89 -99 -105 -85 -18 15 -6 90 15 90 4 0 15 12
25 26 23 36 5 54 -24 23 -35 -38 -52 -124 -29 -147 18 -18 33 -15 68 15 26 21
33 24 41 12 7 -11 12 -10 31 8 l22 22 18 -29 c21 -35 27 -36 55 -11 15 14 24
16 32 8 8 -8 16 -5 31 8 15 13 19 14 15 4 -3 -8 1 -23 8 -33 12 -17 15 -17 46
10 28 24 33 25 28 8 -6 -20 -23 -109 -32 -161 -3 -18 -7 -46 -10 -62 -3 -17
-1 -33 5 -36 6 -4 10 6 10 23 0 41 79 423 90 437 6 7 55 11 144 10 74 -1 133
2 130 7 -3 4 -65 8 -139 8 l-133 0 9 34 c5 19 16 47 23 61 9 17 11 38 6 67
-17 89 11 90 68 3 45 -70 65 -84 91 -68 13 8 16 32 17 132 1 79 -3 124 -10
129 -20 12 -35 10 -40 -5 -6 -14 2 -111 10 -124 2 -4 -3 -9 -10 -12 -15 -6
-48 31 -82 93 -30 55 -54 69 -83 51z"/>
<path d="M2496 1665 c-33 -50 -98 -237 -86 -248 16 -17 55 -3 58 21 4 25 45
57 62 47 5 -3 10 -2 10 4 0 5 -7 14 -17 19 -20 12 -20 69 1 90 14 14 16 13 25
-12 16 -41 21 -76 10 -76 -5 0 -9 -7 -9 -15 0 -8 5 -14 12 -12 6 1 20 -15 30
-36 15 -30 24 -38 41 -35 18 2 21 9 19 33 -1 17 -6 39 -11 50 -5 11 -21 54
-37 95 -38 103 -74 128 -108 75z"/>
<path d="M2696 1681 c-3 -4 -6 -57 -7 -117 -2 -164 -3 -156 29 -152 26 3 27 4
27 70 0 94 8 97 60 18 42 -65 66 -90 86 -90 25 0 43 45 27 67 -5 6 -5 14 0 17
5 3 8 42 6 87 -3 86 -17 118 -48 106 -15 -6 -16 -34 -2 -122 6 -38 -18 -33
-51 10 -18 24 -33 48 -33 53 0 5 -12 21 -26 36 -26 26 -58 34 -68 17z"/>
<path d="M2969 1682 c-13 -6 -15 -28 -15 -137 l1 -130 70 -1 c134 -2 170 23
170 119 -1 70 -20 109 -67 133 -32 17 -135 27 -159 16z m143 -69 c25 -22 37
-72 26 -105 -20 -56 -127 -69 -129 -15 -3 67 4 133 14 140 17 11 67 0 89 -20z"/>
<path d="M3322 1673 c-20 -17 -72 -132 -74 -163 0 -3 -6 -21 -14 -39 -17 -41
-12 -61 16 -61 13 0 25 10 33 28 13 30 38 53 49 46 5 -3 8 1 8 8 0 10 2 10 9
-1 5 -7 13 -11 19 -8 12 8 37 -20 46 -50 5 -16 15 -23 32 -23 33 0 31 24 -6
130 -52 143 -75 169 -118 133z m48 -102 c12 -45 5 -72 -18 -68 -40 6 -44 16
-25 65 6 16 9 24 12 37 4 18 22 -1 31 -34z"/>
<path d="M3506 1672 c-3 -9 -5 -49 -4 -88 1 -38 -2 -76 -6 -82 -4 -7 -3 -12 2
-12 5 0 7 -16 5 -35 -3 -30 0 -37 19 -44 33 -13 46 9 39 61 -14 96 11 103 63
18 20 -33 46 -66 57 -74 18 -12 19 -18 9 -55 -12 -44 -13 -45 -122 -44 -21 0
-35 -4 -32 -9 4 -5 35 -8 70 -5 60 4 64 2 64 -17 0 -46 -30 -128 -60 -166 -39
-49 -53 -51 -48 -5 3 25 0 35 -10 35 -9 0 -12 -6 -8 -16 3 -8 2 -12 -4 -9 -6
3 -13 -1 -16 -9 -11 -27 -25 -5 -18 27 l6 30 -27 -21 c-35 -28 -50 -28 -52 -1
-3 33 -18 43 -42 27 -25 -15 -35 -40 -26 -68 7 -22 35 -26 53 -8 6 6 17 13 24
14 7 1 21 5 31 9 12 5 17 2 17 -8 0 -21 19 -32 33 -18 17 17 27 13 27 -8 0
-32 16 -33 50 -4 l32 26 -5 -29 c-3 -16 -11 -54 -17 -84 -6 -30 -13 -73 -16
-95 -3 -22 -7 -46 -10 -53 -2 -8 1 -12 7 -10 6 2 13 19 15 38 7 85 75 405 88
418 4 4 66 7 137 8 71 0 132 4 136 7 3 4 -56 7 -132 7 l-137 0 5 29 c4 17 14
47 23 68 9 21 16 42 15 47 -1 5 -2 47 -3 95 -1 95 -10 131 -32 131 -21 0 -35
-30 -27 -54 11 -29 8 -90 -4 -96 -5 -2 -29 25 -53 60 -23 36 -50 71 -59 78
-24 17 -51 15 -57 -6z m-86 -518 c0 -8 -4 -12 -10 -9 -5 3 -10 10 -10 16 0 5
5 9 10 9 6 0 10 -7 10 -16z m-15 -44 c-10 -16 -35 7 -28 27 5 13 7 13 21 0 8
-8 11 -20 7 -27z"/>
<path d="M3854 1665 c-24 -37 -84 -201 -84 -231 0 -22 4 -25 28 -22 19 2 28 9
30 24 3 21 42 66 42 49 0 -4 6 -2 14 4 10 9 16 8 26 -4 7 -8 18 -15 25 -15 7
0 15 -13 18 -29 6 -29 34 -45 57 -31 9 5 9 17 1 46 -18 68 -80 217 -93 226
-24 14 -47 8 -64 -17z m50 -63 c3 -5 7 -19 9 -33 3 -13 7 -31 9 -39 2 -11 -7
-16 -31 -18 l-34 -3 7 42 c4 23 9 46 12 51 7 10 21 10 28 0z"/>
<path d="M1404 1444 c-49 -24 -86 -105 -65 -142 8 -13 10 -7 11 27 0 35 6 49
33 75 17 18 39 35 47 38 8 3 13 8 10 11 -3 3 -19 -1 -36 -9z"/>
<path d="M3142 1373 c-11 -21 -27 -70 -37 -109 -16 -62 -21 -71 -38 -66 -15 4
-33 -10 -72 -51 -63 -69 -80 -73 -72 -17 3 22 2 40 -3 40 -4 0 -29 -25 -55
-56 l-48 -56 -24 38 c-33 55 -30 81 10 99 l32 14 -29 -2 c-24 -2 -35 -11 -56
-47 -33 -57 -52 -61 -69 -15 -13 37 -25 44 -37 23 -6 -9 -10 -5 -14 12 -6 24
-7 24 -24 -13 -18 -37 -59 -77 -79 -77 -6 0 -7 16 -3 40 3 22 2 40 -3 40 -13
0 -19 -54 -9 -80 l8 -22 36 21 c44 26 42 26 36 -4 -7 -38 4 -30 29 21 30 59
38 62 52 25 15 -40 33 -46 61 -18 l23 23 25 -46 25 -45 -28 -50 c-28 -49 -29
-65 -4 -65 20 0 46 43 49 80 1 18 17 51 37 75 34 44 56 59 45 30 -8 -23 22
-47 44 -35 10 6 22 15 26 21 4 8 13 4 24 -11 l18 -23 27 29 28 29 -7 -45 c-13
-90 -19 -185 -11 -177 5 4 9 24 10 45 2 39 14 127 20 152 2 8 7 30 10 49 3 18
14 49 24 70 18 35 61 164 61 182 0 22 -21 6 -38 -28z m-72 -199 c0 -21 -38
-84 -51 -84 -16 0 -10 41 12 71 23 32 39 38 39 13z m-279 -210 c-25 -32 -27
-24 -4 19 9 18 18 26 20 20 3 -7 -5 -25 -16 -39z"/>
<path d="M3145 1194 c-34 -73 -29 -134 12 -134 17 0 103 80 103 96 0 6 -22
-11 -50 -39 -42 -42 -52 -48 -65 -37 -19 16 -12 56 13 84 11 12 25 31 31 44
10 19 9 22 -8 22 -12 0 -25 -13 -36 -36z"/>
<path d="M2525 1210 c3 -5 8 -10 11 -10 2 0 4 5 4 10 0 6 -5 10 -11 10 -5 0
-7 -4 -4 -10z"/>
<path d="M2925 1210 c3 -5 8 -10 11 -10 2 0 4 5 4 10 0 6 -5 10 -11 10 -5 0
-7 -4 -4 -10z"/>
<path d="M2172 1183 c-25 -52 11 -97 44 -56 14 17 15 16 10 -15 -3 -18 -23
-56 -45 -85 -65 -88 -103 -196 -93 -265 5 -33 32 -40 53 -13 23 28 62 152 79
249 13 71 14 73 69 114 31 23 58 44 60 45 2 2 2 5 -1 8 -3 3 -22 -8 -44 -23
-67 -49 -65 -49 -59 5 l6 48 -36 -40 -36 -40 3 43 c4 47 3 50 -10 25z m18
-254 c-27 -114 -55 -179 -74 -179 -12 0 -15 10 -12 48 2 26 7 61 11 77 15 55
81 162 93 150 2 -2 -5 -46 -18 -96z"/>
</g>
</svg>
